<svg width="31" height="32" viewBox="0 0 31 32" fill="none" xmlns="http://www.w3.org/2000/svg">
<g clip-path="url(#clip0_101_1248)">
<path d="M15.4255 15.1078C15.9849 14.6517 16.5014 14.0369 16.834 13.3767C16.378 13.2306 15.8967 13.1273 15.4255 13.1273V15.1078ZM15.0778 15.0926C14.5008 14.6542 13.9868 14.0394 13.6542 13.3793C14.1077 13.218 14.5915 13.1298 15.0778 13.1298V15.0926ZM15.4255 6.25107C15.9849 6.70461 16.5014 7.3043 16.834 7.96697C16.378 8.12571 15.8967 8.23154 15.4255 8.23154V6.25107ZM15.0778 6.25107C14.5008 6.70461 13.9868 7.32193 13.6542 7.96697C14.1077 8.11311 14.5915 8.23154 15.0778 8.23154V6.25107ZM15.4255 12.7771V10.8394H17.5294C17.5294 11.618 17.3329 12.3789 17.0003 13.0845C16.5165 12.9106 15.9395 12.7896 15.4255 12.7771ZM20.0139 10.8394H17.8948C17.8646 11.6911 17.6806 12.4545 17.3354 13.2155C17.789 13.4221 18.1946 13.669 18.5902 13.9915C19.4545 13.1424 19.966 12.0136 20.0139 10.8394ZM18.3332 14.2133C18.0006 13.9336 17.5748 13.669 17.1666 13.5103C16.7887 14.1982 16.32 14.7701 15.7279 15.2841C16.6828 15.1657 17.5748 14.8155 18.3332 14.2133ZM15.0778 12.7771V10.8394H12.9613C12.9739 11.618 13.1553 12.3941 13.4904 13.0845C13.9868 12.9106 14.5335 12.7896 15.0778 12.7771ZM10.4743 10.8394H12.5959C12.6413 11.6911 12.8227 12.4369 13.1729 13.2155C12.7017 13.4221 12.2935 13.669 11.9005 13.9915C11.0337 13.1424 10.5373 12.0413 10.4743 10.8394ZM12.155 14.2133C12.5052 13.9487 12.9109 13.6564 13.3216 13.5103C13.6995 14.1982 14.1682 14.7701 14.7603 15.2841C13.8054 15.1657 12.8983 14.8155 12.155 14.2133ZM15.4255 8.56666V10.5043H17.5294C17.5294 9.72571 17.3329 8.97989 17.0003 8.25926C16.5039 8.43563 15.9546 8.55154 15.4255 8.56666ZM20.0139 10.5018H17.8948C17.8646 9.66524 17.668 8.88918 17.3354 8.14083C17.789 7.93422 18.2123 7.66965 18.5902 7.36225C19.4973 8.24162 19.966 9.34524 20.0139 10.5018ZM18.3332 7.13044C17.9855 7.42524 17.5748 7.68729 17.1666 7.84855C16.7887 7.14303 16.32 6.58618 15.7279 6.05957C16.6828 6.178 17.5748 6.53075 18.3332 7.13044ZM15.0778 8.56666V10.5043H12.9613C12.9739 9.74083 13.1553 8.96477 13.4904 8.25926C13.9868 8.43563 14.5335 8.55154 15.0778 8.56666ZM10.4743 10.5018H12.5959C12.6413 9.65012 12.8227 8.90429 13.1729 8.14083C12.7017 7.93422 12.2935 7.68477 11.9005 7.36225C11.0186 8.21642 10.5373 9.315 10.4743 10.5018ZM12.155 7.13044C12.5052 7.42524 12.8983 7.68729 13.3216 7.84855C13.6844 7.15815 14.1833 6.57359 14.7603 6.05957C13.8054 6.178 12.9109 6.53075 12.155 7.13044ZM0 12.2177H9.51937C9.86961 13.9185 11.0791 15.327 13.4879 16.3096C13.2132 17.1159 12.2759 17.8618 11.3058 17.8618H6.14803C5.35685 17.8618 4.73953 17.2142 4.48252 16.7027H9.73354C10.0535 16.6473 10.0687 16.3978 9.74866 16.3676H4.58583C3.92063 16.3676 3.31339 15.8082 2.96567 15.2085H8.97512C9.27748 15.1632 9.27748 14.9137 8.97512 14.8709H2.92032C2.31559 14.8709 1.75622 14.183 1.52693 13.7144H8.17386C8.50646 13.669 8.50646 13.3767 8.17386 13.3616H1.40598C0.87685 13.3616 0.362835 12.8048 0 12.2177ZM30.4882 12.2177H20.9663C20.6186 13.9185 19.4066 15.327 17.0003 16.3096C17.2724 17.1159 18.2098 17.8618 19.1798 17.8618H24.3427C25.1313 17.8618 25.7512 17.2142 26.0082 16.7027H20.7546C20.4372 16.6473 20.4195 16.3978 20.7395 16.3676H25.9024C26.5701 16.3676 27.1723 15.8082 27.52 15.2085H21.5131C21.2082 15.1632 21.2082 14.9137 21.5131 14.8709H27.5704C28.1751 14.8709 28.732 14.183 28.9587 13.7144H22.3118C21.9792 13.669 21.9792 13.3767 22.3118 13.3616H29.0797C29.6113 13.3616 30.1279 12.8048 30.4882 12.2177ZM19.7569 25.0933L22.8107 19.0511H24.8088L26.0661 25.0933H24.1739L24.0832 24.3752H22.0825L21.765 25.0933H19.7569ZM22.5865 23.1153H23.8715L23.5389 20.9005L22.5865 23.1153ZM15.7883 25.0933L16.4838 20.5478H14.7124L15.0173 19.0208H20.4523L20.1474 20.5478H18.4693L17.789 25.0933H15.7883ZM7.61197 25.0933L10.6709 19.0511H12.669L13.9263 25.0933H12.0491L11.9408 24.3752H9.9452L9.62772 25.0933H7.61197ZM10.4466 23.1153H11.7317L11.3965 20.9005L10.4466 23.1153ZM4.34394 25.0933L5.58362 19.0511H7.61197L6.37228 25.0933H4.34394Z" fill="#F9F8ED"/>
</g>
<defs>
<clipPath id="clip0_101_1248">
<rect width="30.4882" height="32" fill="white"/>
</clipPath>
</defs>
</svg>
